HIERARCHY
ROOT Hips
{
	OFFSET 0.000000 0.000000 0.000000
	CHANNELS 6 Xposition Yposition Zposition Zrotation Yrotation Xrotation 
	JOINT LHipJoint
	{
		OFFSET 0.000000 0.000000 0.000000
		CHANNELS 3 Zrotation Yrotation Xrotation
		JOINT LeftUpLeg
		{
			OFFSET 1.363060 -1.794630 0.839290
			CHANNELS 3 Zrotation Yrotation Xrotation
			JOINT LeftLeg
			{
				OFFSET 2.448110 -6.726130 0.000000
				CHANNELS 3 Zrotation Yrotation Xrotation
				JOINT LeftFoot
				{
					OFFSET 2.562200 -7.039590 0.000000
					CHANNELS 3 Zrotation Yrotation Xrotation
					JOINT LeftToeBase
					{
						OFFSET 0.157640 -0.433110 2.322550
						CHANNELS 3 Zrotation Yrotation Xrotation
						End Site
						{
							OFFSET 0.000000 0.000000 0.000000
						}
					}
				}
			}
		}
	}
	JOINT RHipJoint
	{
		OFFSET 0.000000 0.000000 0.000000
		CHANNELS 3 Zrotation Yrotation Xrotation
		JOINT RightUpLeg
		{
			OFFSET -1.305520 -1.794630 0.839290
			CHANNELS 3 Zrotation Yrotation Xrotation
			JOINT RightLeg
			{
				OFFSET -2.542530 -6.985550 0.000000
				CHANNELS 3 Zrotation Yrotation Xrotation
				JOINT RightFoot
				{
					OFFSET -2.568260 -7.056230 0.000000
					CHANNELS 3 Zrotation Yrotation Xrotation
					JOINT RightToeBase
					{
						OFFSET -0.164730 -0.452590 2.363150
						CHANNELS 3 Zrotation Yrotation Xrotation
						End Site
						{
							OFFSET 0.000000 0.000000 0.000000
						}
					}
				}
			}
		}
	}
	JOINT LowerBack
	{
		OFFSET 0.000000 0.000000 0.000000
		CHANNELS 3 Zrotation Yrotation Xrotation
		JOINT Spine
		{
			OFFSET 0.028270 2.035590 -0.193380
			CHANNELS 3 Zrotation Yrotation Xrotation
			JOINT Spine1
			{
				OFFSET 0.056720 2.048850 -0.042750
				CHANNELS 3 Zrotation Yrotation Xrotation
				JOINT Neck
				{
					OFFSET 0.000000 0.000000 0.000000
					CHANNELS 3 Zrotation Yrotation Xrotation
					JOINT Neck1
					{
						OFFSET -0.054170 1.746240 0.172020
						CHANNELS 3 Zrotation Yrotation Xrotation
						JOINT Head
						{
							OFFSET 0.104070 1.761360 -0.123970
							CHANNELS 3 Zrotation Yrotation Xrotation
							End Site
							{
								OFFSET 0.000000 0.000000 0.000000
							}
						}
					}
				}
				JOINT LeftShoulder
				{
					OFFSET 0.000000 0.000000 0.000000
					CHANNELS 3 Zrotation Yrotation Xrotation
					JOINT LeftArm
					{
						OFFSET 3.362410 1.200890 -0.311210
						CHANNELS 3 Zrotation Yrotation Xrotation
						JOINT LeftForeArm
						{
							OFFSET 4.983000 -0.000000 -0.000000
							CHANNELS 3 Zrotation Yrotation Xrotation
							JOINT LeftHand
							{
								OFFSET 3.483560 -0.000000 -0.000000
								CHANNELS 3 Zrotation Yrotation Xrotation
								JOINT LeftFingerBase
								{
									OFFSET 0.000000 0.000000 0.000000
									CHANNELS 3 Zrotation Yrotation Xrotation
									JOINT LeftHandIndex1
									{
										OFFSET 0.715260 -0.000000 -0.000000
										CHANNELS 3 Zrotation Yrotation Xrotation
										End Site
										{
											OFFSET 0.000000 0.000000 0.000000
										}
									}
								}
								JOINT LThumb
								{
									OFFSET 0.000000 0.000000 0.000000
									CHANNELS 3 Zrotation Yrotation Xrotation
									End Site
									{
										OFFSET 0.000000 0.000000 0.000000
									}
								}
							}
						}
					}
				}
				JOINT RightShoulder
				{
					OFFSET 0.000000 0.000000 0.000000
					CHANNELS 3 Zrotation Yrotation Xrotation
					JOINT RightArm
					{
						OFFSET -3.136600 1.374050 -0.404650
						CHANNELS 3 Zrotation Yrotation Xrotation
						JOINT RightForeArm
						{
							OFFSET -5.241900 -0.000000 -0.000000
							CHANNELS 3 Zrotation Yrotation Xrotation
							JOINT RightHand
							{
								OFFSET -3.444170 -0.000000 -0.000000
								CHANNELS 3 Zrotation Yrotation Xrotation
								JOINT RightFingerBase
								{
									OFFSET 0.000000 0.000000 0.000000
									CHANNELS 3 Zrotation Yrotation Xrotation
									JOINT RightHandIndex1
									{
										OFFSET -0.622530 -0.000000 -0.000000
										CHANNELS 3 Zrotation Yrotation Xrotation
										End Site
										{
											OFFSET 0.000000 0.000000 0.000000
										}
									}
								}
								JOINT RThumb
								{
									OFFSET 0.000000 0.000000 0.000000
									CHANNELS 3 Zrotation Yrotation Xrotation
									End Site
									{
										OFFSET 0.000000 0.000000 0.000000
									}
								}
							}
						}
					}
				}
			}
		}
	}
}
MOTION
Frames: 6
Frame Time: 0.008333
0.262067 17.763024 -0.212280 -1.185047 5.149933 5.503308 1.332468 5.367093 2.815418 -17.546489 -22.339493 -1.021038 -0.796009 3.464286 14.018447 -1.398096 8.219121 -7.338136 1.040800 -6.488400 -18.208200 -3.937628 -5.739023 1.519218 22.984138 11.446130 5.344147 0.735469 1.257284 2.321596 1.132542 -10.584593 -12.057304 -0.263100 3.299700 -9.114400 -1.625929 0.134360 -4.531264 1.527007 -0.299646 4.388708 2.119715 0.283608 -1.948048 -17.084786 -13.242996 -13.903067 14.221777 -16.286030 11.997653 7.231900 -7.738100 12.324000 -5.184821 -9.243709 0.384693 -89.221615 -2.850826 31.017900 14.098404 -14.216775 -1.589671 0.614481 2.549158 15.919328 4.810779 25.584715 1.928900 -7.125000 0.000000 0.000000 -24.206600 51.354400 -3.986200 3.281685 10.029263 2.734718 86.660441 -2.754509 26.051930 -23.622763 22.816560 -2.723290 -0.598920 0.650066 25.881566 -6.785311 10.868439 -1.096600 7.125000 0.000000 0.000000 14.843900 -19.531600 9.343300 
0.262271 17.761496 -0.214520 -1.218527 5.136712 5.422656 1.337481 5.368893 2.828652 -17.526249 -22.332167 -1.043962 -0.777813 3.510099 14.152803 -1.381428 8.147690 -7.381111 1.001100 -6.367000 -17.853100 -3.932098 -5.741345 1.533063 23.015734 11.439810 5.407946 0.736661 1.260361 2.324457 1.117541 -10.535298 -12.159127 -0.237100 3.133800 -8.651500 -1.627361 0.124374 -4.456546 1.574538 -0.316396 4.579708 2.150226 0.278884 -1.950930 -17.012885 -13.214946 -13.931848 14.228038 -16.231184 11.823022 7.233500 -7.711000 12.231800 -5.192998 -9.227323 0.379116 -89.067857 -2.867699 31.388299 14.328639 -14.517257 -1.635650 0.578870 2.537250 15.197354 4.705908 25.437483 1.877000 -7.125000 0.000000 0.000000 -24.236800 51.221400 -3.909400 3.296369 9.999587 2.797512 86.089159 -2.990278 27.722118 -24.203448 23.443661 -2.896387 -0.584684 0.561219 24.086779 -6.394018 10.515453 -1.005700 7.125000 0.000000 0.000000 15.097900 -19.837900 9.407200 
0.264001 17.759664 -0.217167 -1.306843 5.113771 5.338025 1.340854 5.376277 2.850317 -17.446110 -22.302660 -1.033639 -0.771241 3.529200 14.206703 -1.373884 8.115995 -7.416859 0.954600 -6.221700 -17.429100 -3.935510 -5.746108 1.545398 23.119342 11.444209 5.476918 0.735365 1.265506 2.324975 1.129362 -10.548015 -12.029372 -0.264400 3.307600 -9.136400 -1.509461 0.155297 -4.420992 1.575868 -0.284195 4.822212 2.116767 0.294755 -1.933514 -16.958493 -13.224531 -13.850090 14.299179 -16.221722 11.522788 7.255000 -7.706200 12.085800 -5.192569 -9.204412 0.378112 -88.806438 -2.911693 32.063787 14.571106 -14.836605 -1.690597 0.512271 2.540807 14.221002 4.405960 25.438684 1.769200 -7.125000 0.000000 0.000000 -24.503300 51.188600 -3.936500 3.310329 9.972651 2.849037 85.569775 -3.143076 29.035167 -24.758441 24.056613 -3.067955 -0.555575 0.519127 22.559102 -5.935108 10.465178 -0.928300 7.125000 0.000000 0.000000 15.384700 -19.892700 9.579800 
0.264001 17.757729 -0.218695 -1.248288 5.084928 5.236462 1.331038 5.381476 2.875831 -17.517675 -22.264903 -0.981736 -0.762174 3.542578 14.258848 -1.370923 8.094857 -7.390138 0.958900 -6.235300 -17.468800 -3.947394 -5.754330 1.562289 23.066995 11.440030 5.565336 0.733213 1.267839 2.325354 1.131879 -10.525523 -11.946254 -0.257600 3.265400 -9.018600 -1.488096 0.218683 -4.404124 1.408920 -0.211535 5.150135 2.139613 0.332349 -1.896306 -16.781290 -13.245694 -13.850339 14.297612 -16.247722 11.259524 7.221800 -7.709900 11.960200 -5.178157 -9.185145 0.383743 -88.441068 -2.982351 32.923587 14.877972 -15.235325 -1.759691 0.400922 2.536756 13.084786 3.712053 25.373964 1.518200 -7.125000 0.000000 0.000000 -25.074600 51.053400 -3.951600 3.337017 9.939901 2.892275 85.079638 -3.274007 30.247224 -25.373763 24.749915 -3.265226 -0.514441 0.473064 20.867139 -5.353476 10.375306 -0.828900 7.125000 0.000000 0.000000 15.751100 -19.988300 9.790800 
0.263696 17.756304 -0.222360 -1.152810 5.064634 5.138382 1.331381 5.386286 2.897314 -17.643844 -22.236991 -0.922182 -0.751660 3.555772 14.319145 -1.350738 8.003943 -7.418029 0.919800 -6.110400 -17.105100 -3.942171 -5.759808 1.582447 22.959914 11.434025 5.632949 0.734383 1.267865 2.325943 1.130194 -10.543005 -12.018030 -0.212400 2.967100 -8.187200 -1.630816 0.211644 -4.345594 1.429472 -0.223088 5.458303 2.255057 0.333417 -1.873448 -16.812106 -13.249933 -13.840692 14.383255 -16.206294 10.954111 7.270600 -7.694700 11.831600 -5.185683 -9.158000 0.386986 -88.180084 -2.997719 33.577912 15.316081 -15.806362 -1.858474 0.325177 2.512265 11.978104 3.306496 25.176575 1.358800 -7.125000 0.000000 0.000000 -25.343700 50.847800 -3.865200 3.355904 9.901385 2.955521 84.331928 -3.471737 31.768623 -26.123869 25.577825 -3.514101 -0.463070 0.412450 18.867197 -4.658227 10.184934 -0.707400 7.125000 0.000000 0.000000 16.194300 -20.171300 10.019800 
0.265223 17.755897 -0.226941 -1.111063 5.052178 5.036968 1.336907 5.395454 2.923457 -17.716734 -22.211697 -0.859450 -0.748209 3.558062 14.343877 -1.354603 8.025254 -7.443586 0.938000 -6.168800 -17.275100 -3.931915 -5.766792 1.609162 22.901948 11.428793 5.691596 0.735878 1.269248 2.327542 1.122287 -10.535519 -12.120027 -0.197200 2.859600 -7.888100 -1.722038 0.194768 -4.317640 1.518446 -0.249664 5.845595 2.347740 0.326905 -1.818988 -16.885331 -13.249870 -13.964236 14.488083 -16.145558 10.696668 7.335100 -7.664800 11.751600 -5.191117 -9.133436 0.386844 -87.879480 -3.113442 34.331360 15.745421 -16.364464 -1.959722 0.256676 2.484062 10.685503 3.051201 24.938689 1.251300 -7.125000 0.000000 0.000000 -25.464700 50.627600 -3.741700 3.365081 9.858034 3.020165 83.464499 -3.604091 33.289226 -26.934505 26.469702 -3.799436 -0.428584 0.359675 16.771680 -4.096813 10.045981 -0.612500 7.125000 0.000000 0.000000 16.554400 -20.298300 10.212700 
